# xmcd
# 
# Track frame offsets:
#     150
#     24885
#     39956
#     55993
# 
# Disc length: 1074
# 
# Revision: 0
# Processed by: cddbd v1.5.2PL0 Copyright (c) Steve Scherf et al.
# Submitted via: fre:ac v1.0.17
# 
DISCID=24043004
DTITLE=BIGBELL - 風の色
DYEAR=2008
DGENRE=
TTITLE0=風の色
TTITLE1=君へ。
TTITLE2=白夜の蝶
TTITLE3=風の色（Instrumental）
EXTD=
EXTT0=
EXTT1=
EXTT2=
EXTT3=
PLAYORDER=
